<svg width="130" height="62" viewBox="0 0 130 62" fill="none" xmlns="http://www.w3.org/2000/svg">
<g clip-path="url(#clip0_12_171)">
<path d="M67.1174 10.389C65.8851 9.41533 64.0802 8.89371 61.5464 8.89371C60.4009 8.87632 59.2381 8.98065 58.11 9.20668C57.2943 9.43271 56.5133 9.79785 55.8365 10.3021C55.2638 10.7368 54.8125 11.3279 54.5349 11.9886C54.2745 12.632 54.1357 13.3101 54.153 14.0056V14.7184C54.0836 14.9097 54.2225 15.0488 54.4134 15.0488H57.5199C57.6588 15.0314 57.7629 14.9271 57.7803 14.788C57.8323 14.0925 58.11 13.4318 58.5613 12.9102C59.0819 12.319 60.0538 12.006 61.4769 12.006C62.0844 11.9886 62.7091 12.0756 63.2819 12.2668C63.681 12.4233 64.0628 12.632 64.3752 12.9102C64.8438 13.3796 65.1215 14.0056 65.1562 14.6663V15.5704C65.1562 15.8834 65.0868 16.1963 64.9653 16.4745C64.8612 16.718 64.705 16.944 64.5141 17.1179C64.3752 17.3091 64.2017 17.4482 63.9934 17.5699C63.8546 17.6743 63.6984 17.7612 63.5422 17.8307C63.4728 17.9003 63.2124 17.9698 62.6918 18.1611C62.1711 18.3524 61.7199 18.5436 61.0778 18.7523C60.4356 18.9609 59.7761 19.1348 59.134 19.3956C58.4918 19.6564 57.9018 19.7781 57.3811 19.9868C56.3572 20.3171 55.5067 21.0126 54.9861 21.9341C54.4481 22.8209 54.153 23.8293 54.153 24.8552V26.8721C54.1878 27.4459 54.3092 28.0196 54.4828 28.5587C54.6911 29.2194 55.0729 29.7931 55.5762 30.2452C56.201 30.8538 56.9472 31.2884 57.7803 31.5493C58.9778 31.9144 60.2274 32.0883 61.4769 32.0709C62.7265 32.123 63.9761 31.9492 65.1736 31.5493C66.0066 31.2884 66.7876 30.8364 67.4298 30.2452C67.9504 29.7931 68.3322 29.2194 68.5405 28.5587C68.7487 28.0196 68.8529 27.4459 68.8702 26.8721V14.162C68.8702 12.6841 68.2281 11.3105 67.1174 10.389ZM64.3926 27.9675C63.8719 28.4891 62.8306 28.8021 61.4769 28.8021C60.1232 28.8021 59.1513 28.5413 58.6307 28.0196C58.058 27.3242 57.7803 26.4548 57.8497 25.5507C57.8497 25.0986 57.9191 24.577 58.1794 24.1945C58.3877 23.8641 58.6133 23.5511 58.891 23.2903C59.1513 23.0991 59.5331 22.9078 59.8629 22.6992C60.2447 22.5079 60.8348 22.3688 61.286 22.1775C61.7373 21.9689 62.2232 21.795 62.7091 21.6559C63.2298 21.5342 63.681 21.3256 64.1323 21.2039C64.3579 21.1343 64.5835 21.03 64.7744 20.8735C65.0174 20.7344 65.1736 20.491 65.2256 20.2302L65.1562 25.5507C65.2256 26.42 64.948 27.2894 64.3926 27.9675Z" fill="#B9B9B9"/>
<path d="M50.5431 8.89369H52.6084C52.7472 8.91108 52.8514 9.0154 52.8687 9.1545V9.20666L52.1572 11.9365C52.1572 12.0756 52.0357 12.1277 51.8968 12.1277H50.4737C49.8316 12.1103 49.1894 12.2147 48.5994 12.4581C48.1828 12.6146 47.801 12.858 47.506 13.171C47.2804 13.4144 47.0895 13.6926 46.9853 14.0055C46.9159 14.2837 46.8638 14.5619 46.8465 14.8401V31.7057C46.8638 31.8796 46.725 32.0187 46.5688 32.0361C46.5514 32.0361 46.5514 32.0361 46.5341 32.0361H43.4275C43.2713 32.0187 43.1498 31.8796 43.1672 31.7057V14.1446C43.1672 13.6926 43.2366 13.2231 43.3581 12.7884C43.4796 12.1277 43.8093 11.5192 44.2606 11.0323C44.8853 10.389 45.6316 9.86738 46.4647 9.53702C47.7489 9.03279 49.1547 8.80676 50.5431 8.89369Z" fill="#B9B9B9"/>
<path d="M39.9912 26.0027V26.7851C39.9912 27.2719 39.9217 27.7414 39.8003 28.2109C39.6614 28.8716 39.349 29.4627 38.8978 29.967C38.273 30.6103 37.5267 31.1319 36.6937 31.4623C35.392 31.9317 34.0036 32.1577 32.6152 32.1056C31.2268 32.1404 29.8384 31.9317 28.5367 31.4623C27.7037 31.1493 26.9401 30.6277 26.3326 29.967C25.8814 29.4801 25.569 28.8716 25.4302 28.2109C25.2913 27.7588 25.2913 27.3067 25.2393 26.8546V9.15446C25.2219 8.98059 25.3608 8.84149 25.5169 8.8241C25.5343 8.8241 25.5343 8.8241 25.5517 8.8241H28.5888C28.7624 8.80672 28.9012 8.94581 28.9186 9.11968C28.9186 9.13707 28.9186 9.13707 28.9186 9.15446V25.6375C28.9359 26.0548 28.9706 26.4547 29.0574 26.872C29.1615 27.2024 29.3524 27.5154 29.5781 27.7762C29.8731 28.1065 30.2549 28.3499 30.6714 28.489C31.2962 28.6977 31.9557 28.802 32.6152 28.8194C33.2921 28.8368 33.9863 28.7325 34.6284 28.489C35.0449 28.3673 35.4268 28.1413 35.7218 27.8457C35.9821 27.6197 36.1557 27.3241 36.2424 26.9937C36.3813 26.5765 36.4334 26.1418 36.4334 25.6897V9.15446C36.416 8.99797 36.5375 8.84149 36.6937 8.8241H39.8003C39.9738 8.80672 40.1126 8.94581 40.13 9.11968C40.13 9.13707 40.13 9.13707 40.13 9.15446L39.9912 26.0027Z" fill="#B9B9B9"/>
<path d="M18.8179 0.51307H21.8551C22.0286 0.495683 22.1675 0.634781 22.1848 0.791266C22.1848 0.808653 22.1848 0.82604 22.1848 0.82604V31.7753C22.2022 31.9492 22.0633 32.0883 21.8898 32.1056C21.8724 32.1056 21.8724 32.1056 21.8551 32.1056H18.8179C18.6444 32.123 18.5055 31.9839 18.4882 31.8101C18.4882 31.7927 18.4882 31.7927 18.4882 31.7753V0.82604C18.5576 0.634781 18.6791 0.51307 18.8179 0.51307Z" fill="#B9B9B9"/>
<path d="M0.751099 40.1733C0.768454 39.8603 1.01143 39.5995 1.34117 39.5822H5.03783C5.35022 39.5995 5.61055 39.843 5.6279 40.1733V60.6555C5.61055 60.9684 5.36758 61.2292 5.03783 61.2466H1.34117C1.02878 61.2292 0.768454 60.9858 0.751099 60.6555V40.1733Z" fill="#B9B9B9"/>
<path d="M10.9039 39.843C10.9213 39.53 11.1816 39.2866 11.494 39.2866H12.2576L24.5798 51.1621H24.6145V40.1734C24.6145 39.843 24.8748 39.5822 25.2046 39.5822H28.9012C29.2136 39.5996 29.474 39.843 29.4913 40.1734V60.9859C29.474 61.2988 29.2136 61.5423 28.9012 61.5423H28.4153C28.2765 61.5249 28.1376 61.4727 28.0161 61.3858L15.8154 49.1104H15.7807V60.6555C15.7807 60.9859 15.5204 61.2467 15.1907 61.2467H11.5287C11.2163 61.2293 10.956 60.9859 10.9386 60.6555L10.9039 39.843Z" fill="#B9B9B9"/>
<path d="M44.382 39.2866C47.4712 39.2866 49.7621 40.2429 51.8447 42.1555C52.0877 42.3468 52.1224 42.7119 51.9315 42.9727C51.9141 42.9901 51.8968 43.0075 51.8794 43.0249L49.4671 45.546C49.2588 45.7547 48.9117 45.7547 48.7034 45.546C47.558 44.5376 46.0654 43.9638 44.5382 43.9638C41.0498 43.9638 38.4812 46.8674 38.4812 50.3275C38.4812 53.7702 41.0845 56.6043 44.5555 56.6043C46.0654 56.6043 47.5233 56.0827 48.6861 55.1264C48.9291 54.9351 49.2588 54.9525 49.4844 55.1611L51.8968 57.7171C52.105 57.9605 52.0877 58.3256 51.8621 58.5517C49.8489 60.499 47.1588 61.577 44.3646 61.5596C38.2209 61.5596 33.2573 56.5695 33.2573 50.4318C33.2573 44.2941 38.2383 39.2866 44.382 39.2866Z" fill="#B9B9B9"/>
<path d="M55.5762 40.1733C55.5762 39.843 55.8365 39.5822 56.1663 39.5822H59.8455C60.1579 39.5995 60.4183 39.843 60.4356 40.1733V56.6912H67.7769C68.1066 56.6912 68.3669 56.952 68.3669 57.2823V60.6555C68.3669 60.9858 68.1066 61.2466 67.7769 61.2466H56.1663C55.8365 61.2466 55.5762 60.9858 55.5762 60.6555V40.1733Z" fill="#B9B9B9"/>
<path d="M70.7966 40.1733C70.814 39.8603 71.057 39.5995 71.3867 39.5822H75.1875C75.5172 39.5822 75.7776 39.843 75.7776 40.1733V52.6921C75.7776 54.8655 77.3742 56.5868 79.5784 56.5868C81.7998 56.5868 83.4312 54.8481 83.4312 52.6921V40.1733C83.4312 39.843 83.6915 39.5822 84.0213 39.5822H87.8221C88.1344 39.5995 88.3948 39.843 88.4121 40.1733V52.9529C88.4121 57.6475 84.4552 61.5596 79.5784 61.5596C74.7363 61.5596 70.814 57.6649 70.814 52.9529L70.7966 40.1733Z" fill="#B9B9B9"/>
<path d="M93.3757 40.1733C93.3757 39.8603 93.6187 39.5995 93.9311 39.5822H101.463C107.416 39.5822 112.293 44.4332 112.293 50.3796C112.293 56.3782 107.433 61.2292 101.463 61.2292H93.9311C93.6187 61.2119 93.3757 60.951 93.3757 60.6381V40.1733ZM101.151 56.6738C104.639 56.6738 107.173 53.9266 107.173 50.397C107.173 46.9022 104.639 44.155 101.151 44.155H98.1831V56.6738H101.151Z" fill="#B9B9B9"/>
<path d="M116.076 40.1733C116.076 39.843 116.337 39.5822 116.666 39.5822H129.44C129.77 39.5822 130.03 39.843 130.03 40.1733V43.5464C130.03 43.8768 129.77 44.1376 129.44 44.1376H120.884V47.9802H127.93C128.242 47.9976 128.503 48.241 128.52 48.5713V51.9445C128.52 52.2748 128.26 52.5356 127.93 52.5356H120.884V56.7086H129.44C129.77 56.7086 130.03 56.9694 130.03 57.2997V60.6728C130.03 61.0032 129.77 61.264 129.44 61.264H116.666C116.337 61.264 116.076 61.0032 116.076 60.6728V40.1733Z" fill="#B9B9B9"/>
<path d="M13.6981 10.389C12.4659 9.41533 10.6609 8.89371 8.12707 8.89371C6.98163 8.87632 5.81883 8.98065 4.69074 9.20668C3.8577 9.39794 3.09407 9.78046 2.43457 10.3021C1.86185 10.7368 1.41062 11.3279 1.13293 11.9886C0.872606 12.632 0.75112 13.3101 0.75112 14.0056V14.788C0.733765 14.9618 0.872606 15.1009 1.0288 15.1183C1.04616 15.1183 1.04616 15.1183 1.06351 15.1183H4.10067C4.23951 15.1009 4.34364 14.9966 4.361 14.8575C4.41306 14.162 4.69074 13.5013 5.14198 12.9797C5.66263 12.3885 6.63452 12.0756 8.05765 12.0756C8.66508 12.006 9.28987 12.0756 9.87994 12.2668C10.2791 12.4233 10.6609 12.632 10.9733 12.9102C11.4419 13.3622 11.7196 14.0056 11.7543 14.6663V15.5704C11.7543 15.8834 11.6849 16.1963 11.5634 16.4745C11.4593 16.718 11.3031 16.944 11.1122 17.1179C10.9733 17.3091 10.7998 17.4482 10.5915 17.5699C10.4527 17.6743 10.2965 17.7612 10.1403 17.8307C10.0709 17.9003 9.81052 17.9698 9.30722 18.1611C8.80392 18.3524 8.33533 18.5436 7.69319 18.7523C7.05105 18.9609 6.40891 19.1348 5.74941 19.3956C5.08991 19.6564 4.49984 19.7781 3.97918 19.9868C2.97258 20.3171 2.10482 21.0126 1.58417 21.9341C1.04616 22.8209 0.75112 23.8293 0.733765 24.8552V26.8547C0.768475 27.4285 0.889962 28.0023 1.06351 28.5413C1.27178 29.202 1.65359 29.7758 2.15689 30.2278C2.78168 30.8364 3.52795 31.2711 4.361 31.5319C5.5585 31.897 6.80808 32.0709 8.05765 32.0535C9.30722 32.1056 10.5568 31.9318 11.7543 31.5319C12.5874 31.2711 13.3683 30.819 14.0278 30.2278C14.5485 29.7758 14.9303 29.202 15.1212 28.5413C15.3295 28.0023 15.4336 27.4285 15.451 26.8547V14.1446C15.451 12.6841 14.8088 11.3105 13.6981 10.389ZM11.0427 27.9675C10.5221 28.4891 9.55019 28.8021 8.12707 28.8021C6.70395 28.8021 5.73206 28.5413 5.2114 28.0196C4.63868 27.3242 4.361 26.4548 4.43042 25.5507C4.43042 25.0812 4.5519 24.6118 4.74281 24.1945C4.95107 23.8641 5.17669 23.5685 5.45437 23.2903C5.7147 23.0991 6.09651 22.9078 6.42626 22.6992C6.80808 22.5079 7.39815 22.3688 7.84939 22.1775C8.30062 21.9689 8.78657 21.795 9.27251 21.6559C9.79317 21.5342 10.2444 21.3256 10.6956 21.2039C10.9213 21.1343 11.1469 21.03 11.3378 20.8735C11.5808 20.7344 11.7369 20.491 11.789 20.2302V25.5507C11.9105 26.4374 11.6155 27.3068 11.0427 27.9675Z" fill="#B9B9B9"/>
</g>
<defs>
<clipPath id="clip0_12_171">
<rect width="130" height="62" fill="white"/>
</clipPath>
</defs>
</svg>
